<?xml version="1.0" encoding="iso-8859-1"?>
<!-- Generator: Adobe Illustrator 17.0.0, SVG Export Plug-In . SVG Version: 6.00 Build 0)  -->
<!DOCTYPE svg PUBLIC "-//W3C//DTD SVG 1.1//EN" "http://www.w3.org/Graphics/SVG/1.1/DTD/svg11.dtd">
<svg version="1.1" id="Capa_1" xmlns="http://www.w3.org/2000/svg" xmlns:xlink="http://www.w3.org/1999/xlink" x="0px" y="0px"
	 width="64px" height="64px" viewBox="0 0 64 64" style="enable-background:new 0 0 64 64;" xml:space="preserve">
<polygon points="33.084,5.605 45.047,13.419 45.047,60.052 33.084,60.052 "/>
<path d="M45.983,39.217v20.591h14.648V43.896L45.983,39.217z M52.168,55.331l-4.476-1.303v-3.863l4.476,1.625V55.331z
	 M52.168,48.575l-4.476-1.303V43.41l4.476,1.626V48.575z M57.783,56.957l-4.478-1.302V51.79l4.478,1.628V56.957z M57.783,50.203
	L53.306,48.9v-3.864l4.478,1.626V50.203z"/>
<path d="M16.929,14.883v30.919l-2.115,1.382V36.857l-1.342,0.555V27.111l-9.768,4.313v10.034l-0.935,0.388v18.206h28.948V5.443
	L16.929,14.883z M4.6,33.388l3.296-1.525v3.966L4.6,37.295V33.388z M4.844,39.818l3.296-1.527v3.968l-3.296,1.464V39.818z
	 M8.24,54.068l-3.295,1.466v-3.907l3.295-1.526V54.068z M8.24,48.024l-3.295,1.467v-3.907l3.295-1.525V48.024z M8.709,31.476
	l3.297-1.526v3.968l-3.297,1.465V31.476z M8.954,37.904l3.296-1.526v3.968l-3.296,1.467V37.904z M12.636,52.177L9.34,53.644v-3.907
	l3.296-1.526V52.177z M12.636,46.135L9.34,47.599v-3.905l3.296-1.526V46.135z M23.195,46.822l-4.559,2.853v-4.231l4.559-2.95V46.822
	z M23.195,39.672l-4.559,2.851v-4.232l4.559-2.949V39.672z M23.195,32.52l-4.559,2.854V31.14l4.559-2.951V32.52z M23.195,25.368
	l-4.559,2.852v-4.232l4.559-2.951V25.368z M23.195,18.216l-4.559,2.853v-4.233l4.559-2.95V18.216z M29.95,42.595l-5.29,3.31v-4.36
	l5.29-3.425V42.595z M29.95,35.444l-5.29,3.311v-4.362l5.29-3.425V35.444z M29.95,28.292l-5.29,3.311v-4.361l5.29-3.426V28.292z
	 M29.95,21.14l-5.29,3.311v-4.361l5.29-3.426V21.14z M29.95,13.987l-5.29,3.311v-4.362l5.29-3.425V13.987z"/>
</svg>
